<svg width="1866" height="244" viewBox="0 0 1866 244" fill="none" xmlns="http://www.w3.org/2000/svg">
<mask id="mask0" mask-type="alpha" maskUnits="userSpaceOnUse" x="0" y="0" width="1866" height="244">
<rect width="1866" height="244" fill="#C4C4C4"/>
</mask>
<g mask="url(#mask0)">
<path d="M-0.996682 84.7686C5.03706 136.184 9.5279 207.319 92.9334 84.7686C197.19 -68.4199 161.535 33.7797 206.286 41.7605C251.038 49.7414 203.089 -34.9446 268.742 53.7318C280.125 69.1071 283.259 77.8977 281.92 82.4714C300.49 89.0373 327.845 99.8676 367.097 116.914C608.56 221.774 313.744 48.1896 572.91 106.051C832.077 163.912 642.989 103.391 863.551 124.895C1084.11 146.399 981.079 188.077 1125.66 124.895C1270.24 61.7127 861.823 37.7701 1316.47 84.7686C1420.97 95.4098 1368.85 49.7414 1468.68 116.914C1568.51 184.086 1479 235.297 1598.26 151.941C1717.52 68.5851 1662.44 -4.12954 1747.27 73.9057C1832.1 151.941 1781.69 164.134 1868 151.941L1868 935L-0.999997 935L-0.996682 84.7686Z" fill="#729D9E"/>
<path d="M-0.996682 84.7686C5.03706 136.184 9.5279 207.319 92.9334 84.7686C197.19 -68.4199 161.535 33.7797 206.286 41.7605C251.038 49.7414 203.089 -34.9446 268.742 53.7318C334.394 142.408 125.634 12.0539 367.097 116.914C608.56 221.774 313.744 48.1896 572.91 106.051C832.077 163.912 642.989 103.391 863.551 124.895C1084.11 146.399 981.079 188.077 1125.66 124.895C1270.24 61.7127 861.823 37.7701 1316.47 84.7686C1420.97 95.4098 1368.85 49.7414 1468.68 116.914C1568.51 184.086 1479 235.297 1598.26 151.941C1717.52 68.5851 1662.44 -4.12954 1747.27 73.9057C1832.1 151.941 1781.69 164.134 1868 151.941L1868 935L-0.999997 935L-0.996682 84.7686Z" stroke="#18332E" stroke-width="2"/>
</g>
</svg>
