<svg width="1866" height="237" viewBox="0 0 1866 237" fill="none" xmlns="http://www.w3.org/2000/svg">
<mask id="mask0" mask-type="alpha" maskUnits="userSpaceOnUse" x="0" y="0" width="1866" height="237">
<rect width="1866" height="237" fill="#C4C4C4"/>
</mask>
<g mask="url(#mask0)">
<path d="M-1 86.2036C5.03223 138.5 9.52131 210.854 92.9058 86.2036C197.137 -69.6092 161.492 34.3412 206.232 42.4588C250.973 50.5764 203.036 -35.5604 268.672 54.6352C280.052 70.2739 283.185 79.215 281.847 83.8671C300.412 90.5454 327.76 101.561 367.003 118.9C608.405 225.556 313.658 48.998 572.76 107.851C831.862 166.703 642.821 105.145 863.328 127.017C1083.83 148.89 980.835 191.281 1125.38 127.017C1269.93 62.7528 861.609 38.4 1316.14 86.2036C1420.62 97.0271 1368.5 50.5764 1468.31 118.9C1568.12 187.223 1478.63 239.311 1597.86 154.527C1717.09 69.7429 1662.02 -4.2174 1746.83 75.1547C1831.64 154.527 1781.25 166.929 1867.53 154.527L1867.53 238L-0.999182 238L-1 86.2036Z" fill="#8DAAA6"/>
<path d="M-1 86.2036C5.03223 138.5 9.52131 210.854 92.9058 86.2036C197.136 -69.6092 161.492 34.3412 206.232 42.4588C250.973 50.5764 203.036 -35.5604 268.672 54.6352C334.308 144.831 125.601 12.2433 367.003 118.9C608.405 225.556 313.658 48.998 572.76 107.851C831.862 166.703 642.821 105.145 863.328 127.017C1083.83 148.89 980.835 191.281 1125.38 127.017C1269.93 62.7528 861.609 38.4 1316.14 86.2036C1420.62 97.0271 1368.5 50.5764 1468.31 118.9C1568.12 187.223 1478.63 239.311 1597.86 154.527C1717.09 69.7429 1662.02 -4.2174 1746.83 75.1547C1831.64 154.527 1781.25 166.929 1867.53 154.527L1867.53 238L-0.999182 238L-1 86.2036Z" stroke="#61726F" stroke-width="2"/>
</g>
</svg>
