<svg width="100" height="100" viewBox="0 0 100 100" fill="none" xmlns="http://www.w3.org/2000/svg">
<path fill-rule="evenodd" clip-rule="evenodd" d="M88.8889 100H11.1111C4.97461 100 0 95.0254 0 88.8889V11.1111C0 4.97461 4.97461 0 11.1111 0H88.8889C95.0254 0 100 4.97461 100 11.1111V88.8889C100 95.0254 95.0254 100 88.8889 100ZM16.666 50.1342C16.666 31.6487 31.591 16.6666 49.9973 16.6666C68.4077 16.6666 83.3327 31.6487 83.3327 50.1342C83.3327 64.9134 73.791 77.4483 60.5556 81.8825C58.8639 82.2108 58.2639 81.1692 58.2639 80.274C58.2639 79.9102 58.2685 79.271 58.2746 78.416C58.287 76.6903 58.3056 74.0858 58.3056 71.094C58.3056 67.9713 57.2389 65.9299 56.0431 64.8966C63.4681 64.0684 71.2618 61.2384 71.2618 48.3835C71.2618 44.7295 69.9723 41.7427 67.8348 39.4022C68.1785 38.5551 69.3223 35.1542 67.5035 30.5464C67.5035 30.5464 64.7098 29.647 58.3473 33.9766C55.6848 33.2341 52.8327 32.8639 50.0014 32.8493C47.166 32.8639 44.316 33.2341 41.6556 33.9766C35.2889 29.647 32.4889 30.5464 32.4889 30.5464C30.6764 35.1542 31.8202 38.5551 32.1639 39.4022C30.0306 41.7427 28.7327 44.7295 28.7327 48.3835C28.7327 61.2071 36.5139 64.0767 43.916 64.9217C42.9639 65.7584 42.1014 67.233 41.7993 69.3957C39.8993 70.2532 35.0723 71.7299 32.0973 66.6159C32.0973 66.6159 30.3368 63.4032 26.9931 63.1669C26.9931 63.1669 23.7368 63.1251 26.7639 65.202C26.7639 65.202 28.9493 66.2311 30.4639 70.0963C30.4639 70.0963 32.4202 76.6054 41.6931 74.5828C41.702 76.0807 41.7146 77.3806 41.7243 78.3865C41.7327 79.2558 41.7389 79.9056 41.7389 80.274C41.7389 81.1609 41.1306 82.1941 39.4639 81.8866C26.216 77.4608 16.666 64.9176 16.666 50.1342Z" fill="#535D5C"/>
</svg>
