<svg width="100" height="100" viewBox="0 0 100 100" fill="none" xmlns="http://www.w3.org/2000/svg">
<path d="M49.9999 37.9482C47.6157 37.9482 45.2851 38.6547 43.3027 39.9783C41.3204 41.3019 39.7753 43.1832 38.8629 45.3843C37.9505 47.5854 37.7118 50.0074 38.1769 52.344C38.6421 54.6807 39.7902 56.827 41.476 58.5117C43.1619 60.1963 45.3098 61.3436 47.6482 61.8083C49.9865 62.2731 52.4103 62.0346 54.613 61.1229C56.8157 60.2112 58.6983 58.6672 60.0229 56.6863C61.3475 54.7054 62.0545 52.3765 62.0545 49.994C62.0505 46.8005 60.7792 43.7389 58.5194 41.4807C56.2596 39.2225 53.1957 37.9522 49.9999 37.9482V37.9482Z" fill="#E9AE8C"/>
<path d="M64.1815 19.3097H35.8183C31.4371 19.3148 27.2367 21.0562 24.1387 24.1519C21.0407 27.2477 19.298 31.445 19.293 35.823V64.1655C19.298 68.5436 21.0407 72.7409 24.1387 75.8366C27.2367 78.9324 31.4371 80.6738 35.8183 80.6789H64.1815C68.5628 80.6738 72.7631 78.9324 75.8611 75.8366C78.9591 72.7409 80.7018 68.5436 80.7069 64.1655V35.823C80.7018 31.445 78.9591 27.2477 75.8611 24.1519C72.7631 21.0562 68.5628 19.3148 64.1815 19.3097V19.3097ZM49.9999 68.4037C46.3562 68.4037 42.7943 67.324 39.7647 65.3012C36.7351 63.2783 34.3738 60.4032 32.9794 57.0393C31.585 53.6754 31.2202 49.9738 31.931 46.4028C32.6419 42.8317 34.3965 39.5514 36.973 36.9768C39.5495 34.4022 42.8321 32.6489 46.4058 31.9385C49.9795 31.2282 53.6837 31.5928 57.0501 32.9861C60.4164 34.3795 63.2937 36.7391 65.318 39.7665C67.3423 42.7939 68.4228 46.3532 68.4228 49.9943C68.4172 54.875 66.4744 59.5543 63.0207 63.0055C59.5669 66.4568 54.8842 68.3981 49.9999 68.4037V68.4037ZM70.2439 34.3749C69.3443 34.3749 68.465 34.1084 67.717 33.6092C66.969 33.1099 66.3859 32.4003 66.0414 31.57C65.6968 30.7396 65.6064 29.8259 65.7814 28.9442C65.9564 28.0625 66.3891 27.2525 67.0247 26.6165C67.6603 25.9804 68.4703 25.5469 69.3524 25.3708C70.2345 25.1947 71.149 25.2838 71.9804 25.6269C72.8118 25.97 73.5228 26.5517 74.0235 27.2985C74.5241 28.0452 74.792 28.9236 74.7933 29.8224C74.7944 30.4201 74.6775 31.0122 74.4494 31.5647C74.2213 32.1173 73.8863 32.6194 73.4638 33.0425C73.0412 33.4655 72.5393 33.8012 71.9868 34.0301C71.4343 34.2591 70.842 34.377 70.2439 34.377V34.3749Z" fill="#E9AE8C"/>
<path d="M99.9023 23.3972C99.8963 21.5962 99.7314 19.7993 99.4093 18.0273C98.997 15.8636 98.417 13.7551 97.38 11.7995C96.3 9.73906 94.8943 7.86627 93.2173 6.25328C90.6841 3.77528 87.5549 1.99098 84.1312 1.07229C80.98 0.222952 77.7565 0.0445903 74.5246 0.048837C74.5138 0.0346044 74.5072 0.0177167 74.5054 0H25.4754C25.4754 0.0169868 25.4754 0.0339736 25.4754 0.048837C23.6374 0.0828107 21.7951 0.0679472 19.9677 0.295146C17.9637 0.506864 15.9909 0.948603 14.0881 1.61163C11.1288 2.7024 8.45791 4.45411 6.27908 6.73315C3.78151 9.26946 1.98296 12.4082 1.0582 15.8445C0.22099 18.97 0.0382482 22.1572 0.0339984 25.3677L0 74.5594C0.0594973 76.7783 0.0786214 79.0185 0.452604 81.2183C0.849961 83.554 1.41731 85.8281 2.50101 87.9472C3.94235 90.7867 5.99619 93.2712 8.51448 95.2218C10.3121 96.6535 12.3485 97.7569 14.5301 98.4811C17.7429 99.5173 21.0578 99.9144 24.4215 99.9335C26.5209 99.9462 28.6161 99.9993 30.7155 99.9908C45.9595 99.9271 61.2057 100.101 76.4497 99.8974C78.4636 99.8532 80.4702 99.6402 82.4483 99.2604C86.1893 98.6018 89.6706 96.9085 92.497 94.3724C95.8501 91.3828 98.1131 87.7263 99.1352 83.3119C99.8045 80.4263 99.9703 77.4982 100 74.5616V73.9755C99.9979 73.7462 99.9108 24.0555 99.9023 23.3972ZM87.0721 64.1656C87.0648 70.2304 84.6507 76.0447 80.3594 80.3333C76.068 84.6219 70.2497 87.0348 64.1805 87.0426H35.8173C29.7478 87.0353 23.929 84.6227 19.6371 80.334C15.3453 76.0453 12.931 70.2307 12.9237 64.1656V35.8231C12.931 29.758 15.3453 23.9434 19.6371 19.6547C23.929 15.366 29.7478 12.9534 35.8173 12.9461H64.1805C70.2501 12.9534 76.0689 15.366 80.3607 19.6547C84.6526 23.9434 87.0669 29.758 87.0742 35.8231L87.0721 64.1656Z" fill="#E9AE8C"/>
</svg>
