<svg width="100" height="100" viewBox="0 0 100 100" fill="none" xmlns="http://www.w3.org/2000/svg">
<path fill-rule="evenodd" clip-rule="evenodd" d="M87.7824 0C94.5256 0 100 5.47461 100 12.2176V87.7824C100 94.5254 94.5254 100 87.7824 100H12.2176C5.47461 100 0 94.5254 0 87.7824V12.2176C0 5.47461 5.47441 0 12.2176 0L87.7824 0ZM31.34 82.6715V38.5861H16.6838V82.6715H31.34ZM84.1797 82.6715V57.3904C84.1797 43.8488 76.9496 37.5494 67.3084 37.5494C59.5342 37.5494 56.0518 41.825 54.102 44.8279V38.5861H39.4494C39.6437 42.723 39.4494 82.6715 39.4494 82.6715H54.1018V58.0512C54.1018 56.7332 54.1967 55.416 54.585 54.474C55.6424 51.8422 58.0551 49.1158 62.1033 49.1158C67.4031 49.1158 69.5266 53.1602 69.5266 59.084V82.6715H84.1797ZM24.1109 17.3285C19.0965 17.3285 15.8203 20.6252 15.8203 24.9461C15.8203 29.1762 18.9969 32.5637 23.917 32.5637H24.0115C29.1219 32.5637 32.3029 29.1762 32.3029 24.9461C32.2082 20.6313 29.1309 17.3379 24.1109 17.3285Z" fill="#535D5C"/>
</svg>
