<svg width="100" height="100" viewBox="0 0 100 100" fill="none" xmlns="http://www.w3.org/2000/svg">
<path fill-rule="evenodd" clip-rule="evenodd" d="M15 0C6.71573 0 0 6.71573 0 15V85C0 93.2843 6.71573 100 15 100H85C93.2843 100 100 93.2843 100 85V15C100 6.71573 93.2843 0 85 0H15ZM40.4566 16.5749C43.1912 15.4792 45.3366 15.0004 48.8815 14.6966C50.2073 14.5861 53.6049 14.8991 55.3727 15.2951C60.2619 16.4092 64.3224 18.6374 67.8028 22.1362C69.8469 24.1895 71.1359 26.0034 72.4526 28.6827C73.7232 31.2608 74.2481 33.0287 74.8097 36.5551C74.8466 36.7853 74.9018 37.9639 74.9294 39.1793L74.9847 41.389L75.9054 41.4351C76.9459 41.4903 77.1668 41.5824 77.4339 42.098C77.5996 42.4203 77.6088 42.6689 77.6088 45.7718V45.9383C77.6089 48.6859 77.6089 49.2507 77.3274 49.5557C77.2546 49.6347 77.1629 49.6962 77.0475 49.7736L77.0287 49.7863C76.8077 49.9244 76.5131 49.998 75.9054 50.0441C75.4542 50.0809 75.0491 50.1546 75.0123 50.219C74.9755 50.2743 74.9386 50.661 74.9386 51.0753C74.9386 52.3828 74.4322 53.2759 73.3826 53.7915C72.9774 53.9941 72.8669 54.0033 70.6572 54.0033H68.3553L67.8581 53.7455C67.2228 53.414 66.8821 53.0641 66.5782 52.4104L66.3296 51.8856V45.9928C66.3296 40.3026 66.3388 40.0908 66.5138 39.7317C67.0754 38.59 68.0791 38.0099 69.4326 38.0559C69.764 38.0651 70.0771 38.0467 70.1139 38.0007C70.3165 37.7981 69.8377 34.9162 69.3313 33.3785C68.3092 30.2388 66.5874 27.4581 64.2211 25.1655C62.9229 23.8948 61.9008 23.103 60.3448 22.1638C59.7371 21.7955 57.6286 20.8103 56.892 20.5525C52.2882 18.9044 47.0676 18.978 42.5743 20.7367C37.7496 22.6334 34.0298 26.0218 31.7095 30.6439C30.6783 32.6972 29.8956 35.4963 29.8036 37.4298L29.7759 37.9823L30.6507 38.0375C31.1479 38.0651 31.7003 38.1664 31.9397 38.2585C32.4645 38.4703 33.0446 39.0227 33.33 39.5752L33.551 40.0079V46.0388V52.0697L33.3392 52.5117C33.0722 53.0365 32.5566 53.5429 32.0134 53.8007C31.6543 53.9757 31.4149 53.9941 29.555 54.0309C27.3544 54.0677 26.9585 54.0217 26.2771 53.635C25.7983 53.3588 25.5589 53.101 25.2551 52.4841C25.0341 52.0513 24.9973 51.8487 24.9696 51.0661C24.9604 50.5689 24.9328 50.1454 24.9144 50.1269C24.896 50.1085 24.5369 50.0717 24.1133 50.0441C23.1742 49.9888 22.7598 49.8047 22.4744 49.3075C22.2718 48.9392 22.2718 48.9208 22.2903 45.6245C22.3179 42.6044 22.3363 42.2822 22.4836 42.052C22.7875 41.5916 23.1558 41.4351 23.9752 41.4351C24.3804 41.4351 24.7579 41.3983 24.8131 41.3614C24.8776 41.3246 24.9328 40.5972 24.9696 39.2713C25.0065 38.1572 25.0893 36.8129 25.163 36.2789C25.4392 34.3545 25.9825 32.1171 26.406 31.1687C26.452 31.0675 26.5809 30.7176 26.7006 30.3861C26.8203 30.0546 27.0689 29.4654 27.2623 29.0694C27.4557 28.6735 27.6122 28.3328 27.6122 28.3144C27.6122 28.2224 29.0301 25.9021 29.4261 25.3312C32.1883 21.4272 36.1199 18.3059 40.4566 16.5749ZM48.3747 26.1138C46.3122 26.4085 44.1392 27.2924 42.574 28.4894C41.865 29.0326 40.3918 30.5334 39.9038 31.2148C39.4526 31.8501 38.6608 33.3417 38.403 34.0231C37.8413 35.5331 37.6295 36.8866 37.6664 38.7189L37.694 40.0079L42.1136 40.054C46.7633 40.0994 46.764 40.1 47.3676 40.5532L47.3895 40.5696C48.1353 41.1404 48.4483 42.319 48.1076 43.2305C47.9143 43.7369 47.2053 44.3999 46.6897 44.5472C46.4319 44.6301 45.1152 44.6577 42.1964 44.6577C39.9222 44.6577 37.9702 44.6853 37.8597 44.7129C37.6572 44.7682 37.6479 44.805 37.6479 46.0388C37.6479 47.1069 37.6664 47.3187 37.7953 47.3647C37.8781 47.3923 39.8301 47.4199 42.132 47.4199C45.1613 47.4199 46.4319 47.4476 46.7081 47.5304C46.9475 47.6041 47.2606 47.8159 47.5644 48.1197C48.1169 48.6722 48.2734 49.1049 48.2181 49.9612C48.1813 50.6057 47.9051 51.1121 47.3618 51.5173C46.7266 52.0144 46.6805 52.0145 42.1162 52.0237H42.1161H42.1136C39.7841 52.0237 37.8229 52.0605 37.7492 52.1065C37.5743 52.217 37.6572 55.3107 37.8689 56.2591C38.4122 58.6439 39.5631 60.7524 41.2389 62.3913C42.5555 63.6896 43.7617 64.4906 45.6124 65.2824C47.371 66.0467 50.566 66.2584 52.7482 65.752C55.4184 65.1443 58.0701 63.4225 59.7827 61.1851C60.4641 60.292 60.5746 60.1078 61.0534 59.1134C61.9557 57.2167 62.2227 56.0934 62.2964 53.7547L62.3516 52.125L62.1306 52.0789C62.0109 52.0421 59.9853 52.0145 57.6282 51.9961L57.5965 51.9959C53.4474 51.9776 53.3366 51.9771 52.9784 51.7843C51.5697 51.0293 51.229 49.2522 52.2786 48.1749C52.3133 48.1394 52.3457 48.1056 52.3764 48.0736C52.4924 47.9525 52.5851 47.8558 52.6918 47.7781C53.1166 47.4686 53.7621 47.4619 56.9797 47.4283C57.2264 47.4257 57.4883 47.423 57.7663 47.4199C60.2523 47.3923 62.2872 47.3555 62.3056 47.3463C62.3148 47.3371 62.324 46.7754 62.324 46.0941C62.324 45.2009 62.2872 44.8326 62.2135 44.7774C62.149 44.7406 60.105 44.6853 57.6742 44.6577C57.4047 44.6547 57.1508 44.652 56.9113 44.6494C53.7647 44.6159 53.1214 44.6091 52.7015 44.2993C52.5936 44.2197 52.5004 44.1201 52.3833 43.9949C52.3533 43.9628 52.3217 43.929 52.2878 43.8935C51.2106 42.7794 51.5789 40.9655 53.0244 40.2934C53.4204 40.1092 53.6137 40.1 57.8584 40.054L62.278 40.0079V38.4887C62.2687 36.2329 61.9557 34.8149 61.0349 32.9366C59.3868 29.5574 56.2839 27.1267 52.518 26.2704C51.8919 26.1322 49.0284 26.0218 48.3747 26.1138ZM31.6082 64.4997C30.7335 62.7135 30.0061 60.5497 30.0061 59.721V59.3896H32.4921C34.4073 59.3896 34.9966 59.4172 35.0242 59.5C35.0426 59.5645 35.1623 59.9788 35.3004 60.4208C35.6319 61.4981 36.5802 63.3948 37.2524 64.3432C39.4806 67.4737 42.8782 69.6835 46.8098 70.5398C47.9607 70.7884 50.8518 70.8897 52.0304 70.7148C55.695 70.1899 58.8071 68.6062 61.3392 65.9821C62.0573 65.2363 63.3096 63.4869 63.7607 62.603C64.0922 61.94 64.6999 60.3471 64.7735 59.9512C64.8104 59.7671 64.8748 59.5645 64.9301 59.5C64.9945 59.4172 65.6206 59.3896 67.4897 59.3896C69.6627 59.3896 69.9666 59.408 69.9666 59.5277C69.9666 60.3011 69.1379 62.8976 68.4473 64.2695C67.7015 65.7611 66.7624 67.308 66.4217 67.5842C66.348 67.6487 66.2836 67.7315 66.2836 67.7776C66.2836 67.9157 65.8416 68.4037 64.5434 69.7019C62.3796 71.8473 60.0409 73.3481 57.2142 74.3885C56.275 74.7292 54.1665 75.3185 53.8535 75.3185C53.7798 75.3185 53.5588 75.3645 53.3747 75.4106L53.034 75.5118L53.0064 79.2593L52.9788 83.0067L52.6933 83.6052C51.9659 85.1429 50.3915 85.7782 48.8354 85.1705C48.2001 84.9219 47.574 84.3326 47.2241 83.6421L46.9939 83.1909L46.9479 79.3237L46.9018 75.4566L46.4415 75.3829C43.9738 74.987 40.9262 73.8269 38.8453 72.4918C35.6595 70.4569 33.2195 67.7684 31.6082 64.4997Z" fill="#535D5C"/>
</svg>
