<svg width="237" height="139" viewBox="0 0 237 139" fill="none" xmlns="http://www.w3.org/2000/svg">
<g clip-path="url(#clip0)">
<path d="M71.3548 99.0376L71.3486 99.0325L71.3421 99.0276C71.3496 99.0333 71.3438 99.0281 71.3167 99.0039C71.2985 98.9876 71.2707 98.9628 71.2308 98.9268C71.1458 98.8502 71.0232 98.739 70.8644 98.5948C70.547 98.3064 70.0871 97.8873 69.5 97.3516C68.3259 96.2802 66.6441 94.7431 64.5792 92.8542C60.4493 89.0765 54.7874 83.892 48.5904 78.2125L48.5903 78.2123C37.8537 68.3806 32.2167 63.2134 29.235 60.4335C27.7424 59.0418 26.9228 58.2554 26.4632 57.7836C25.9917 57.2997 25.9482 57.1934 25.9325 57.1544L25.9321 57.1536C25.7419 56.684 25.7873 56.2577 25.9779 55.9308C26.1703 55.6008 26.5399 55.3231 27.0876 55.2194L27.0877 55.2195L27.0963 55.2177C27.2643 55.1828 27.4224 55.158 27.5412 55.145C27.5529 55.1438 27.564 55.1426 27.5744 55.1416C27.6585 55.2144 27.7805 55.3216 27.9388 55.4618C28.2582 55.7446 28.7207 56.1575 29.3062 56.6824C30.477 57.7318 32.1374 59.2266 34.1242 61.019C38.0976 64.6036 43.3752 69.377 48.6497 74.1548C53.9241 78.9327 59.1951 83.7147 63.1554 87.3165C65.1356 89.1175 66.7878 90.6231 67.9488 91.6855C68.5294 92.2168 68.9865 92.6367 69.3002 92.9271C69.4573 93.0725 69.5773 93.1844 69.6585 93.2612C69.687 93.2882 69.7098 93.3099 69.7273 93.3269C69.7744 93.4086 69.8337 93.4905 69.9087 93.5589C69.9911 93.634 70.2106 93.793 70.4962 93.6993C70.7761 93.6075 70.8616 93.356 70.8858 93.2508C70.9138 93.1288 70.911 93.0029 70.8969 92.8899L70.8963 92.8736C70.8956 92.8477 70.895 92.8091 70.8944 92.7568C70.8933 92.6528 70.8925 92.5023 70.8921 92.3075C70.8913 91.9182 70.8921 91.3569 70.8942 90.6476C70.8984 89.2293 70.9079 87.2221 70.9214 84.8226C70.9483 80.0236 70.9908 73.6568 71.0373 67.2961C71.0838 60.9354 71.1341 54.5812 71.1767 49.8075C71.198 47.4206 71.2173 45.4292 71.2332 44.0299C71.2412 43.3301 71.2483 42.779 71.2543 42.4008C71.2573 42.2114 71.2601 42.0666 71.2625 41.9685C71.2637 41.9191 71.2648 41.8838 71.2658 41.8613L71.2661 41.8546C71.2711 41.8157 71.2711 41.7867 71.2712 41.7854C71.2718 41.7629 71.2717 41.7384 71.2714 41.7154C71.2708 41.6685 71.269 41.6067 71.2668 41.5348C71.2656 41.4998 71.2644 41.4616 71.263 41.4204C71.2587 41.2894 71.2533 41.1275 71.2483 40.9358C71.2352 40.4334 71.225 39.7331 71.2447 38.9063C71.2602 38.2565 71.2625 37.68 71.2643 37.2158C71.2649 37.0777 71.2654 36.9495 71.2662 36.8322C71.268 36.573 71.2712 36.374 71.2786 36.2343C71.2801 36.2064 71.2817 36.1827 71.2832 36.1627C71.3187 36.1276 71.3647 36.0851 71.4191 36.0376C71.5338 35.9377 71.6743 35.826 71.811 35.729L71.8111 35.729L71.8193 35.723C72.2564 35.399 72.7122 35.3179 73.091 35.4033C73.4673 35.4881 73.8124 35.7465 74.0217 36.1941L74.022 36.1947C74.0398 36.2327 74.0881 36.3367 74.1217 37.0148C74.1544 37.6757 74.1725 38.8174 74.176 40.8702C74.1829 44.9708 74.1311 52.6658 74.0251 67.3197C73.9586 75.7793 73.8866 83.5198 73.822 89.1766C73.7898 92.0052 73.7593 94.3122 73.7324 95.9274C73.7189 96.7353 73.7063 97.3688 73.6948 97.8077C73.6891 98.0274 73.6836 98.1962 73.6786 98.3128C73.6761 98.3714 73.6738 98.4136 73.6718 98.4412C73.5467 98.855 73.1928 99.1681 72.7329 99.298C72.2618 99.4311 71.74 99.3523 71.3548 99.0376ZM70.8971 92.8974L70.8971 92.8968C70.8976 92.9029 70.8975 92.904 70.8971 92.8974Z" fill="#535E5C" stroke="#535E5C"/>
<path d="M49.249 73.9094C37.778 63.5197 28.2904 54.9206 28.1792 54.8056C27.9989 54.6493 28.1903 54.5963 29.2318 54.4785C30.4206 54.3474 52.4124 53.3023 52.8501 53.3461C52.9706 53.365 56.2578 60.7386 61.637 73.1362C66.3565 83.9926 70.2001 92.881 70.168 92.8541C70.131 92.8396 60.7274 84.3163 49.249 73.9094Z" fill="#E9AE8C"/>
</g>
<g clip-path="url(#clip1)">
<path d="M120.301 35.3986L120.304 35.406L120.308 35.4133C120.304 35.4046 120.307 35.4116 120.322 35.4455C120.332 35.4678 120.347 35.5017 120.369 35.5505C120.415 35.6554 120.482 35.8075 120.569 36.0047C120.742 36.3989 120.993 36.9712 121.312 37.7026C121.951 39.1652 122.864 41.2626 123.985 43.8392C126.228 48.9925 129.3 56.0626 132.66 63.8056L132.66 63.8058C138.486 77.213 141.542 84.2572 143.139 88.0269C143.938 89.9142 144.368 90.9711 144.596 91.5926C144.83 92.2295 144.826 92.3461 144.824 92.39L144.824 92.3909C144.803 92.9087 144.581 93.2997 144.258 93.5391C143.934 93.7799 143.47 93.8951 142.921 93.7793L142.921 93.7792L142.912 93.7775C142.742 93.7448 142.585 93.7066 142.47 93.6725C142.46 93.6697 142.451 93.667 142.443 93.6644C142.396 93.5635 142.328 93.4173 142.242 93.2275C142.065 92.8377 141.809 92.2702 141.487 91.5497C140.842 90.109 139.931 88.0596 138.841 85.604C136.663 80.6928 133.775 74.1582 130.891 67.6206C128.008 61.083 125.129 54.5429 122.97 49.6207C121.89 47.1595 120.991 45.1032 120.361 43.6542C120.046 42.9295 119.798 42.3575 119.629 41.9628C119.545 41.7652 119.48 41.6135 119.437 41.5098C119.422 41.4738 119.41 41.4447 119.401 41.4222C119.392 41.3274 119.371 41.2271 119.33 41.1329C119.284 41.0282 119.144 40.7886 118.837 40.7651C118.547 40.7427 118.371 40.9385 118.308 41.0227C118.234 41.123 118.184 41.2396 118.151 41.3503C118.149 41.3543 118.147 41.3596 118.144 41.3666C118.134 41.3913 118.118 41.4279 118.097 41.4773C118.054 41.5754 117.992 41.717 117.911 41.9C117.749 42.2657 117.513 42.7921 117.214 43.4569C116.617 44.7862 115.768 46.666 114.752 48.9124C112.719 53.4052 110.016 59.3631 107.312 65.3138C104.608 71.2644 101.902 77.2074 99.8658 81.6703C98.8474 83.9018 97.9964 85.763 97.3962 87.0699C97.096 87.7235 96.8589 88.2379 96.695 88.5906C96.6129 88.7671 96.5498 88.902 96.5064 88.9932C96.4846 89.0391 96.4687 89.072 96.4584 89.0929L96.4548 89.1001C96.4359 89.1313 96.4242 89.1565 96.4221 89.1611L96.4218 89.1617C96.412 89.1821 96.402 89.2048 96.3927 89.2264C96.3737 89.2703 96.3496 89.3289 96.3216 89.3972C96.308 89.4306 96.2932 89.467 96.2771 89.5063C96.2264 89.6308 96.1636 89.7849 96.0881 89.9666C95.8898 90.4434 95.6061 91.1049 95.2417 91.8736C94.9557 92.477 94.7126 93.0166 94.5167 93.4514C94.4583 93.581 94.4041 93.7012 94.3543 93.8111C94.2442 94.0536 94.1577 94.2396 94.0921 94.3684C94.0766 94.3988 94.0634 94.4239 94.0523 94.4441C94.0514 94.4445 94.0506 94.4448 94.0497 94.4452C94.0006 94.4652 93.9372 94.4884 93.863 94.513C93.7144 94.5623 93.5369 94.6126 93.3692 94.6506L93.3692 94.6505L93.3594 94.6529C92.8138 94.788 92.3588 94.6843 92.0481 94.4597C91.7404 94.2373 91.529 93.8645 91.5225 93.3614L91.5225 93.3607C91.5219 93.3156 91.5217 93.1964 91.7746 92.5465C92.0211 91.913 92.4821 90.834 93.3378 88.9064C95.0471 85.0557 98.3145 77.855 104.544 64.1457C108.145 56.2331 111.45 48.9976 113.876 43.7144C115.09 41.0727 116.083 38.9197 116.784 37.4144C117.134 36.6616 117.411 36.0719 117.605 35.6645C117.703 35.4605 117.778 35.3041 117.832 35.1964C117.859 35.1422 117.879 35.1032 117.892 35.0777C117.893 35.0768 117.893 35.0759 117.894 35.075C118.509 34.3489 119.845 34.4965 120.301 35.3986ZM117.904 35.057C117.906 35.0525 117.906 35.0537 117.903 35.0588C117.903 35.0579 117.903 35.0573 117.904 35.057Z" fill="#535E5C" stroke="#535E5C"/>
<path d="M130.242 67.6024C136.514 81.8193 141.699 93.5835 141.754 93.7346C141.855 93.9515 141.656 93.9267 140.642 93.6316C139.487 93.2916 118.692 85.7075 118.305 85.496C118.201 85.4313 118.244 77.2319 118.451 63.5034C118.624 51.478 118.785 41.6404 118.804 41.6781C118.832 41.7061 123.971 53.3665 130.242 67.6024Z" fill="#E9AE8C"/>
</g>
<g clip-path="url(#clip2)">
<path d="M213.517 63.7805L213.51 63.7845L213.503 63.7887C213.511 63.7838 213.504 63.7873 213.472 63.8037C213.45 63.8147 213.417 63.8316 213.369 63.8556C213.266 63.9069 213.118 63.9806 212.926 64.0759C212.542 64.2664 211.984 64.5421 211.271 64.8937C209.846 65.5968 207.801 66.603 205.29 67.8379C200.268 70.3076 193.377 73.6917 185.83 77.3937L185.83 77.3938C172.762 83.8108 165.896 87.178 162.221 88.9419C160.381 89.825 159.35 90.3018 158.744 90.5579C158.121 90.8207 158.006 90.8225 157.964 90.8229L157.963 90.8229C157.457 90.8291 157.076 90.6315 156.841 90.3349C156.604 90.0355 156.48 89.5901 156.583 89.0422L156.583 89.0423L156.585 89.0335C156.613 88.8644 156.648 88.7081 156.679 88.5928C156.682 88.5814 156.685 88.5706 156.688 88.5606C156.786 88.5088 156.931 88.4342 157.119 88.3379C157.499 88.1435 158.052 87.8632 158.754 87.5091C160.158 86.8011 162.155 85.7994 164.548 84.6021C169.333 82.2076 175.701 79.0317 182.073 75.8603C188.444 72.689 194.817 69.5223 199.614 67.1464C202.013 65.9584 204.017 64.9682 205.429 64.2741C206.136 63.9269 206.693 63.6542 207.078 63.4678C207.271 63.3745 207.418 63.3035 207.52 63.2559C207.555 63.2392 207.584 63.2259 207.606 63.2157C207.699 63.2016 207.797 63.1763 207.888 63.1313C207.988 63.082 208.216 62.9355 208.233 62.6353C208.249 62.3412 208.046 62.1699 207.957 62.1092C207.854 62.0387 207.735 61.9953 207.625 61.9673L207.61 61.9619C207.585 61.9531 207.549 61.9397 207.5 61.9212C207.403 61.8843 207.262 61.8302 207.081 61.7596C206.718 61.6185 206.196 61.4133 205.536 61.153C204.216 60.6324 202.351 59.8922 200.121 59.0055C195.662 57.2322 189.748 54.873 183.841 52.5125C177.934 50.152 172.035 47.7902 167.605 46.0115C165.39 45.1221 163.543 44.3786 162.245 43.854C161.596 43.5917 161.086 43.3843 160.736 43.2409C160.56 43.1691 160.427 43.1137 160.336 43.0757C160.291 43.0566 160.258 43.0427 160.237 43.0336L160.231 43.0309C160.197 43.0121 160.17 43.0015 160.169 43.001C160.148 42.9922 160.125 42.9833 160.104 42.9752C160.06 42.9587 160.002 42.9378 159.934 42.9138C159.901 42.9021 159.865 42.8894 159.826 42.8756C159.702 42.8319 159.55 42.778 159.369 42.7128C158.897 42.5419 158.241 42.2963 157.478 41.9767C156.878 41.7256 156.343 41.5135 155.911 41.3427C155.782 41.2918 155.663 41.2446 155.554 41.2011C155.313 41.105 155.129 41.0295 155.002 40.9717C154.976 40.9602 154.955 40.9501 154.937 40.9414C154.917 40.8956 154.894 40.8372 154.87 40.7692C154.819 40.6261 154.766 40.4545 154.725 40.2918L154.725 40.2918L154.723 40.2819C154.58 39.7568 154.671 39.3028 154.888 38.9811C155.104 38.6616 155.471 38.4344 155.964 38.4025L155.964 38.4025C156.006 38.3997 156.121 38.3926 156.764 38.6084C157.392 38.8187 158.462 39.2177 160.375 39.9624C164.196 41.4498 171.343 44.3013 184.951 49.7385C192.806 52.8824 199.988 55.7694 205.233 57.8904C207.855 58.951 209.992 59.8198 211.487 60.4333C212.234 60.7402 212.82 60.9827 213.224 61.1533C213.427 61.2387 213.582 61.3052 213.689 61.3524C213.742 61.3761 213.781 61.3936 213.806 61.4055C214.145 61.6727 214.308 62.1164 214.262 62.592C214.214 63.0792 213.95 63.5365 213.517 63.7805ZM207.632 61.9698L207.631 61.9696C207.637 61.9714 207.638 61.9719 207.632 61.9698Z" fill="#535E5C" stroke="#535E5C"/>
<path d="M182.061 75.213C168.206 82.1106 156.742 87.8135 156.594 87.8752C156.383 87.9862 156.404 87.7886 156.673 86.7758C156.984 85.6208 164.023 64.7597 164.223 64.368C164.284 64.2626 172.349 63.8876 185.854 63.3946C197.684 62.9545 207.362 62.6132 207.325 62.6333C207.298 62.6625 195.935 68.3147 182.061 75.213Z" fill="#E9AE8C"/>
</g>
<defs>
<clipPath id="clip0">
<rect width="92.804" height="83.6309" fill="white" transform="matrix(0.930736 0.365692 0.365692 -0.930736 0 84.4408)"/>
</clipPath>
<clipPath id="clip1">
<rect width="92.804" height="86.2727" fill="white" transform="matrix(-0.708575 -0.705636 -0.705636 0.708575 180.238 76.9005)"/>
</clipPath>
<clipPath id="clip2">
<rect width="92.804" height="83.6309" fill="white" transform="matrix(0.679637 -0.733549 -0.73355 -0.679636 173.928 124.915)"/>
</clipPath>
</defs>
</svg>
