<svg width="512" height="512" viewBox="0 0 512 512" fill="none" xmlns="http://www.w3.org/2000/svg">
<path fill-rule="evenodd" clip-rule="evenodd" d="M442 512H70C31.3401 512 0 480.66 0 442V70C0 31.3401 31.3401 0 70 0H442C480.66 0 512 31.3401 512 70V442C512 480.66 480.66 512 442 512ZM196.721 315.174C165.845 284.122 124.761 267.05 81.0564 267.05V199.693C208.413 199.693 312.032 303.729 312.032 431.614H244.682C244.682 387.585 227.652 346.225 196.721 315.174ZM363.65 431.699C363.65 275.07 236.923 147.651 81.1624 147.651V80.301C274.054 80.301 431 237.925 431 431.699H363.65ZM127.648 431.297C153.405 431.297 174.297 410.405 174.297 384.648C174.297 358.878 153.398 338 127.641 338C101.885 338 81 358.878 81 384.648C81 410.412 101.892 431.297 127.648 431.297Z" fill="#E9AE8C"/>
</svg>
