<svg width="101" height="100" viewBox="0 0 101 100" fill="none" xmlns="http://www.w3.org/2000/svg">
<path fill-rule="evenodd" clip-rule="evenodd" d="M10 0C4.47715 0 0 4.47716 0 10V90C0 95.5229 4.47715 100 10 100H91C96.5229 100 101 95.5228 101 90V10C101 4.47715 96.5229 0 91 0H10ZM65.3976 23.8047L49.9952 15L34.5926 23.8047L19.19 32.6091V50.2183V67.8274L34.5926 76.6318L49.9952 85.4365L65.3976 76.6318L80.8 67.8274V50.2183V32.6091L65.3976 23.8047ZM62.9152 28.0617L49.9952 20.6762L37.0751 28.0617L24.155 35.4472V47.0501L40.0008 47.0817C40.221 47.0817 40.4028 47.076 40.5574 47.0711C41.2708 47.0487 41.4057 47.0444 42.0663 47.7038L50.223 57.0818C50.898 56.8299 51.6293 56.6917 52.3934 56.6917C55.7928 56.6917 58.5487 59.4204 58.5487 62.7861C58.5487 66.1519 55.7928 68.8806 52.3934 68.8806C48.9939 68.8806 46.238 66.1519 46.238 62.7861C46.238 61.8732 46.4411 61.0071 46.8045 60.2297L41.2089 53.6896C40.2587 52.5621 40.0797 52.5442 38.2832 52.524L24.155 52.4926V64.9893L37.0751 72.3748L49.9952 79.7603L62.9152 72.3748L75.8352 64.9893V52.7333L59.5245 52.7008C59.3043 52.7008 59.1225 52.7065 58.9679 52.7113C58.2545 52.7338 58.1196 52.738 57.459 52.0786L49.3023 42.7006C48.6273 42.9525 47.896 43.0907 47.1319 43.0907C43.7325 43.0907 40.9766 40.3621 40.9766 36.9963C40.9766 33.6305 43.7325 30.9019 47.1319 30.9019C50.5314 30.9019 53.2873 33.6305 53.2873 36.9963C53.2873 37.9092 53.0842 38.7753 52.7208 39.5528L58.3164 46.0929C59.2666 47.2203 59.4456 47.2382 61.2421 47.2584L75.8352 47.2909V35.4472L62.9152 28.0617ZM47.1319 40.4989C45.1782 40.4989 43.5943 38.9306 43.5943 36.9963C43.5943 35.0619 45.1782 33.4937 47.1319 33.4937C49.0856 33.4937 50.6696 35.0619 50.6696 36.9963C50.6696 38.9306 49.0856 40.4989 47.1319 40.4989ZM55.931 62.7861C55.931 60.8518 54.347 59.2835 52.3934 59.2835C50.4397 59.2835 48.8557 60.8518 48.8557 62.7861C48.8557 64.7205 50.4397 66.2887 52.3934 66.2887C54.347 66.2887 55.931 64.7205 55.931 62.7861Z" fill="#535D5C"/>
</svg>
